<?xml version="1.0" encoding="UTF-8"?>
<!DOCTYPE svg PUBLIC "-//W3C//DTD SVG 1.0//EN" "http://www.w3.org/TR/2001/REC-SVG-20010904/DTD/svg10.dtd">
<!-- Creator: CorelDRAW X7 -->
<svg xmlns="http://www.w3.org/2000/svg" xml:space="preserve" width="250px" version="1.0" style="shape-rendering:geometricPrecision; text-rendering:geometricPrecision; image-rendering:optimizeQuality; fill-rule:evenodd; clip-rule:evenodd" viewBox="0 0 321124 38577" 
    xmlns:xlink="http://www.w3.org/1999/xlink">
    <defs>
        <style type="text/css">
            <![CDATA[
    .fil0 {fill:#F0F0F0}
   ]]>
        </style>
    </defs>
    <g id="Camada_x0020_1">
        <metadata id="CorelCorpID_0Corel-Layer"/>
        <path class="fil0" d="M147277 852l-41404 0 -22119 37725 73504 0 7148 -8594 -60153 0 1 -1311 4316 -7282 20640 0c6299,32 9498,-2755 10785,-7284l-25221 0 -809 -1165 2967 -5098 18508 0c7584,-363 10949,-3008 11837,-6991zm52465 29568l-9331 0 17018 -20392 44 27958 34661 0 4812 -8148 -27515 0 0 -21051c-36,-5343 -2559,-8143 -7743,-8229l-12217 0 -30436 37719 26030 0 4677 -7857zm67618 -22544l-16864 30256 65277 0 5351 -9314 -50175 0 16458 -28695 -8877 -83c-5721,-405 -8555,2240 -11170,7836zm-267360 29536l20770 -36123 34796 0c4360,1262 6023,3884 4990,7865l-10519 15440c-1125,2963 -91,4760 3102,5389l27783 0 -5125 7575 -36955 0 -6069 -8157c-630,-1213 -1620,-1844 -2967,-1894l-6204 0c-1258,-47 -2338,487 -3237,1602l-4855 8157 -15510 146zm26839 -19373c-674,1068 -405,2282 405,2768l9980 0c1214,291 2563,-583 3237,-1311l3776 -6846c495,-2233 89,-3690 -1213,-4370l-8497 0c-1035,0 -2069,146 -2698,1311l-4990 8448z"/>
    </g>
</svg>
